HIERARCHY
ROOT Hips
{
	OFFSET 0.000000 0.000000 0.000000
	CHANNELS 6 Xposition Yposition Zposition Zrotation Yrotation Xrotation 
	JOINT LHipJoint
	{
		OFFSET 0.000000 0.000000 0.000000
		CHANNELS 3 Zrotation Yrotation Xrotation
		JOINT LeftUpLeg
		{
			OFFSET 1.363060 -1.794630 0.839290
			CHANNELS 3 Zrotation Yrotation Xrotation
			JOINT LeftLeg
			{
				OFFSET 2.448110 -6.726130 0.000000
				CHANNELS 3 Zrotation Yrotation Xrotation
				JOINT LeftFoot
				{
					OFFSET 2.562200 -7.039590 0.000000
					CHANNELS 3 Zrotation Yrotation Xrotation
					JOINT LeftToeBase
					{
						OFFSET 0.157640 -0.433110 2.322550
						CHANNELS 3 Zrotation Yrotation Xrotation
						End Site
						{
							OFFSET 0.000000 0.000000 0.000000
						}
					}
				}
			}
		}
	}
	JOINT RHipJoint
	{
		OFFSET 0.000000 0.000000 0.000000
		CHANNELS 3 Zrotation Yrotation Xrotation
		JOINT RightUpLeg
		{
			OFFSET -1.305520 -1.794630 0.839290
			CHANNELS 3 Zrotation Yrotation Xrotation
			JOINT RightLeg
			{
				OFFSET -2.542530 -6.985550 0.000000
				CHANNELS 3 Zrotation Yrotation Xrotation
				JOINT RightFoot
				{
					OFFSET -2.568260 -7.056230 0.000000
					CHANNELS 3 Zrotation Yrotation Xrotation
					JOINT RightToeBase
					{
						OFFSET -0.164730 -0.452590 2.363150
						CHANNELS 3 Zrotation Yrotation Xrotation
						End Site
						{
							OFFSET 0.000000 0.000000 0.000000
						}
					}
				}
			}
		}
	}
}
MOTION
Frames: 27
Frame Time: 0.008333
-0.459619 16.596891 -0.607702 161.219608 87.622171 166.429033 -9.224101 1.914179 1.084256 -20.047085 8.199421 -36.247966 -2.231130 1.353633 32.869707 2.825462 13.754771 -13.171363 178.834700 0.000000 -0.100601 11.600311 -3.247235 -1.327364 -4.530757 -14.877839 -5.856511 -0.555037 -3.097985 48.880759 0.078779 12.101965 15.675741 4.667100 0.000000 -84.027400
-0.340170 16.546173 -0.653257 157.675268 87.611195 162.695481 -9.127039 1.985870 0.940302 -20.360326 8.207071 -36.317068 -2.210763 1.509458 34.697464 2.909051 13.937098 -14.478278 178.448700 0.000000 -0.238601 11.820794 -3.033179 -1.427921 -5.270850 -15.033900 -7.205262 -0.794785 -3.229290 52.077172 -0.084946 11.527043 16.723761 4.736600 0.000000 -81.661600
-0.224959 16.494768 -0.700789 154.587212 87.577539 159.400997 -9.052896 2.032012 0.779510 -20.652650 8.244556 -36.281731 -2.190031 1.646884 36.396554 2.998417 14.143244 -15.840688 178.033700 0.000001 -0.282800 12.008424 -2.821326 -1.532302 -5.919411 -15.083566 -8.542733 -1.024065 -3.374972 55.236090 -0.265643 10.336026 17.405609 4.478400 -0.000000 -78.983700
-0.113428 16.443447 -0.749932 151.864089 87.525994 156.453677 -9.000278 2.059216 0.607074 -20.923348 8.300810 -36.138576 -2.169128 1.767852 37.954721 3.091680 14.375139 -17.207157 177.602300 -0.000000 -0.266800 12.166636 -2.610494 -1.639540 -6.483439 -15.036883 -9.860117 -1.247608 -3.533229 58.328136 -0.463979 8.551995 17.684182 3.892699 -0.000000 -76.089900
-0.004938 16.393091 -0.800365 149.453791 87.457453 153.803375 -8.967315 2.072744 0.427608 -21.172570 8.364634 -35.890256 -2.147983 1.874274 39.366376 3.186198 14.629899 -18.532038 177.167000 0.000000 -0.230700 12.299150 -2.400337 -1.747479 -6.969665 -14.901581 -11.150876 -1.467805 -3.701237 61.321570 -0.681324 6.255524 17.541495 3.030001 0.000000 -73.001900
0.101116 16.344580 -0.851631 147.311310 87.370656 151.408685 -8.950964 2.077246 0.245258 -21.403093 8.424622 -35.543032 -2.126673 1.967910 40.629416 3.279370 14.902339 -19.779241 176.739100 -0.000000 -0.213700 12.410234 -2.190900 -1.853381 -7.386272 -14.684936 -12.410896 -1.684820 -3.875565 64.184109 -0.917468 3.580140 16.982240 1.983800 -0.000001 -69.691300
0.205248 16.298769 -0.903309 145.420257 87.262015 149.259383 -8.948169 2.076420 0.063681 -21.619338 8.471028 -35.108055 -2.105573 2.050332 41.745151 3.368697 15.184105 -20.924175 176.328600 -0.000000 -0.246400 12.503453 -1.983252 -1.953896 -7.742175 -14.393547 -13.639245 -1.896987 -4.052580 66.884172 -1.168563 0.698394 16.036394 0.873000 -0.000001 -66.120900
0.307899 16.256518 -0.954931 143.756095 87.126743 147.336563 -8.954628 2.073996 -0.114759 -21.828876 8.496773 -34.593844 -2.085694 2.122829 42.712960 3.452107 15.465858 -21.951980 175.943300 0.000000 -0.347100 12.582868 -1.778266 -2.046155 -8.049895 -14.034684 -14.834951 -2.101691 -4.228593 69.391777 -1.426086 -2.197997 14.761632 -0.180300 0.000000 -62.279501
0.409472 16.218477 -1.006130 142.386330 86.959213 145.717158 -8.969469 2.071397 -0.287644 -22.035683 8.499644 -34.017224 -2.068107 2.186330 43.538090 3.527358 15.732760 -22.860476 175.589400 -0.000000 -0.516900 12.648551 -1.579404 -2.126390 -8.314355 -13.614746 -16.002935 -2.295512 -4.399921 71.681656 -1.677141 -4.925372 13.236188 -1.075400 -0.000000 -58.212800
0.510250 16.185244 -1.056597 141.370080 86.753377 144.468276 -8.991408 2.069853 -0.453574 -22.243888 8.480679 -33.391225 -2.054413 2.241335 44.223433 3.592555 15.969017 -23.655461 175.271500 0.000000 -0.744000 12.700508 -1.389424 -2.192078 -8.542236 -13.142907 -17.146970 -2.474889 -4.562911 73.732951 -1.906163 -7.326209 11.551009 -1.746700 -0.000000 -54.018800
0.610444 16.157354 -1.106010 140.762422 86.501926 143.650140 -9.019387 2.070350 -0.612245 -22.456746 8.445683 -32.721478 -2.046676 2.287666 44.766693 3.645824 16.157611 -24.347055 174.993200 0.000000 -1.004600 12.738237 -1.210777 -2.242127 -8.740928 -12.630992 -18.266053 -2.636003 -4.714166 75.527645 -2.097278 -9.282006 9.797466 -2.169800 -0.000000 -49.826300
0.710343 16.135099 -1.154363 140.660580 86.198850 143.367543 -9.055250 2.071706 -0.762528 -22.671161 8.401809 -32.019767 -2.046390 2.324637 45.171182 3.685087 16.278774 -24.950495 174.757300 0.000000 -1.269700 12.758404 -1.047134 -2.275525 -8.908205 -12.092229 -19.364046 -2.774638 -4.850695 77.053852 -2.237203 -10.722300 8.056054 -2.357200 -0.000001 -45.791800
0.810130 16.118719 -1.201544 141.100141 85.836187 143.659110 -9.099330 2.073095 -0.904434 -22.884419 8.356979 -31.286653 -2.055126 2.350989 45.434345 3.708507 16.314961 -25.479886 174.566700 0.000000 -1.507600 12.759318 -0.900788 -2.293522 -9.045936 -11.543439 -20.436920 -2.886574 -4.970489 78.301319 -2.316827 -11.618859 6.389792 -2.346801 -0.000000 -42.061000
0.910013 16.108462 -1.247718 142.101451 85.406487 144.546291 -9.152711 2.072659 -1.037356 -23.088989 8.318682 -30.519634 -2.073670 2.364761 45.552112 3.714289 16.250846 -25.945396 174.424400 0.000000 -1.687800 12.738920 -0.774486 -2.297539 -9.150682 -11.001664 -21.478940 -2.967546 -5.072163 79.260533 -2.332921 -11.986288 4.845346 -2.190700 0.000000 -38.770800
1.010192 16.104372 -1.293096 143.631114 84.901851 145.995004 -9.214807 2.068548 -1.161122 -23.277107 8.290632 -29.712273 -2.102207 2.363999 45.520424 3.701062 16.075089 -26.353563 174.333500 -0.000000 -1.785801 12.697094 -0.669453 -2.290542 -9.220117 -10.485160 -22.481451 -3.014033 -5.155480 79.925335 -2.288207 -11.874275 3.451138 -1.943300 -0.000000 -36.042400
1.110918 16.106544 -1.338002 145.621740 84.315077 147.934804 -9.284333 2.059013 -1.274686 -23.438562 8.274378 -28.854965 -2.140059 2.346560 45.333682 3.667958 15.782102 -26.704348 174.297201 0.000001 -1.784801 12.634755 -0.586442 -2.274918 -9.249350 -10.010497 -23.434073 -3.023394 -5.220490 80.289913 -2.191551 -11.365402 2.223299 -1.654500 -0.000000 -33.975500
1.212387 16.114986 -1.382839 147.973638 83.641012 150.260871 -9.358329 2.043016 -1.377065 -23.563267 8.267324 -27.936534 -2.185897 2.310927 44.986939 3.614840 15.372800 -26.992663 174.317800 0.000000 -1.679000 12.554669 -0.524126 -2.253768 -9.233063 -9.592574 -24.325832 -2.994582 -5.267677 80.353130 -2.056641 -10.566286 1.163368 -1.363500 -0.000001 -32.625000
1.314834 16.129655 -1.428042 150.562543 82.877264 152.843037 -9.432464 2.020704 -1.467097 -23.642292 8.263393 -26.945708 -2.238058 2.256415 44.475548 3.542600 14.855482 -27.210495 174.395600 -0.000000 -1.475000 12.460963 -0.478871 -2.230461 -9.166563 -9.244121 -25.146956 -2.928193 -5.297542 80.118532 -1.900202 -9.598538 0.257170 -1.096901 -0.000000 -31.962600
1.418428 16.150461 -1.474064 153.269728 82.026357 155.555373 -9.502489 1.993096 -1.543080 -23.667251 8.253800 -25.872607 -2.294498 2.183235 43.795987 3.452990 14.245307 -27.347342 174.528400 -0.000000 -1.190800 12.357824 -0.445918 -2.208047 -9.044373 -8.973385 -25.888947 -2.826356 -5.310354 79.595694 -1.739652 -8.587052 -0.524635 -0.869400 -0.000000 -31.860000
1.523356 16.177339 -1.521354 155.990160 81.094361 158.285849 -9.564803 1.961870 -1.602743 -23.632058 8.227119 -24.710452 -2.353011 2.092434 42.946476 3.348767 13.564000 -27.392897 174.711199 -0.000000 -0.852800 12.248821 -0.419876 -2.188998 -8.861596 -8.784194 -26.546539 -2.692333 -5.306115 78.799615 -1.590772 -7.646908 -1.223012 -0.686001 0.000000 -32.100799
1.629721 16.210070 -1.570302 158.641928 80.091848 160.946017 -9.616997 1.928894 -1.643624 -23.533388 8.170004 -23.455634 -2.411361 1.985739 41.927417 3.233513 12.838105 -27.339449 174.935200 0.000000 -0.491400 12.136402 -0.395687 -2.175041 -8.614802 -8.674513 -27.116159 -2.530092 -5.284542 77.748913 -1.465958 -6.871066 -1.881506 -0.546000 -0.000000 -32.448300
1.737543 16.248413 -1.621284 161.171592 79.033510 163.479202 -9.658013 1.895231 -1.664892 -23.370205 8.068266 -22.109580 -2.467401 1.865454 40.742031 3.111369 12.097042 -27.182763 175.189700 -0.000000 -0.135000 12.021624 -0.368146 -2.168138 -8.301861 -8.635679 -27.597974 -2.343868 -5.245226 76.462839 -1.373610 -6.322722 -2.535839 -0.444400 0.000000 -32.711800
1.846797 16.292035 -1.674564 163.551384 77.934354 165.854946 -9.688630 1.861543 -1.664094 -23.143719 7.907512 -20.677535 -2.518795 1.733677 39.396545 2.986583 11.370366 -26.921480 -4.537200 -0.000000 -0.195800 11.904011 -0.335076 -2.167285 -7.921817 -8.653934 -27.993115 -2.137775 -5.187365 74.958466 -1.318241 -6.032636 -3.209902 -0.373200 0.000000 -32.759100
1.957487 16.340499 -1.730358 165.776004 76.810583 168.070471 -9.710478 1.827672 -1.640266 -22.857607 7.674772 -19.172168 -2.563415 1.592745 37.902259 2.863195 10.684935 -26.558592 -4.257401 -0.000000 -0.491800 11.782260 -0.294828 -2.171122 -7.474780 -8.711292 -28.306925 -1.915692 -5.110164 73.249983 -1.300843 -5.999498 -3.912863 -0.322799 0.000000 -32.530000
2.069300 16.393332 -1.788776 167.853533 75.677022 170.130740 -9.726802 1.792916 -1.594650 -22.514046 7.365436 -17.600077 -2.599407 1.444792 36.269397 2.743865 10.060234 -26.097730 -3.979500 -0.000000 -0.757100 11.654185 -0.248081 -2.178311 -6.962923 -8.787718 -28.535907 -1.681015 -5.012770 71.342967 -1.319680 -6.196700 -4.636353 -0.283700 0.000000 -32.029100
2.182235 16.449869 -1.849852 169.802057 74.547015 172.063530 -9.740713 1.756755 -1.526767 -22.117730 6.973579 -15.987200 -2.625055 1.292172 34.520256 2.630718 9.509392 -25.546659 -3.710400 -0.000000 -1.008400 11.517709 -0.195554 -2.184834 -6.386810 -8.862470 -28.691591 -1.437290 -4.894196 69.243252 -1.370831 -6.579484 -5.359398 -0.247900 0.000000 -31.283400
2.296087 16.509396 -1.913498 171.641834 73.430100 173.892454 -9.756455 1.719097 -1.438872 -21.670477 6.505985 -14.353218 -2.639280 1.137329 32.677067 2.523619 9.033033 -24.911648 -3.452000 0.000000 -1.272500 11.370642 -0.139585 -2.187330 -5.748066 -8.915514 -28.775368 -1.188039 -4.753476 66.948466 -1.448809 -7.094744 -6.044393 -0.212200 -0.000000 -30.369400
